<!DOCTYPE svg PUBLIC "-//W3C//DTD SVG 20010904//EN" "http://www.w3.org/TR/2001/REC-SVG-20010904/DTD/svg10.dtd">
<svg version="1.0" xmlns="http://www.w3.org/2000/svg" width="694px" height="585px" viewBox="0 0 6940 5850" preserveAspectRatio="xMidYMid meet"><g fill="#050505" stroke="none">
 <path d="M5755 3548 c-10 -24 -1 -163 10 -163 13 0 19 155 6 168 -7 7 -12 5 -16 -5z"/>
 <path d="M5827 3554 c-14 -14 -8 -151 7 -164 12 -9 22 -2 53 42 l38 53 3 -40 c4 -60 9 -70 27 -55 21 17 21 143 1 159 -12 10 -22 3 -55 -39 l-40 -50 -3 47 c-3 43 -15 62 -31 47z"/>
 <path d="M6026 3535 c-39 -36 -37 -94 5 -129 36 -31 65 -33 99 -6 34 26 17 45 -27 28 -39 -15 -63 1 -63 41 0 32 16 51 45 51 12 0 26 -5 33 -12 9 -9 15 -9 25 1 10 10 7 16 -12 32 -32 26 -73 24 -105 -6z"/>
 <path d="M6181 3546 c-8 -10 -8 -16 3 -25 10 -9 16 -8 26 3 12 15 6 36 -9 36 -5 0 -14 -6 -20 -14z"/>
 <path d="M1330 3535 c-7 -8 -18 -45 -26 -82 -8 -38 -20 -97 -28 -133 -14 -63 -9 -90 13 -76 6 4 11 13 11 20 0 24 49 38 86 24 27 -10 41 -10 66 0 25 9 40 9 65 0 26 -9 40 -9 67 0 39 14 86 2 86 -22 0 -19 19 -31 31 -19 13 13 -40 275 -59 291 -25 19 -295 17 -312 -3z m312 -115 c9 -47 17 -87 18 -90 0 -4 -144 -10 -240 -9 -47 1 -110 4 -110 6 0 1 9 42 21 93 l21 91 136 -3 136 -3 18 -85z"/>
 <path d="M2617 3543 c-4 -3 -7 -79 -7 -168 0 -133 3 -165 15 -175 10 -9 38 -11 90 -8 59 4 83 11 115 32 73 48 98 140 61 222 -21 47 -59 77 -116 93 -44 12 -148 15 -158 4z m146 -64 c72 -20 101 -83 72 -157 -19 -47 -62 -72 -124 -72 l-41 0 0 120 0 120 28 0 c15 0 44 -5 65 -11z"/>
 <path d="M3112 3538 c-19 -19 -17 -322 3 -338 8 -7 22 -10 30 -6 23 8 18 349 -5 354 -9 1 -21 -3 -28 -10z"/>
 <path d="M3396 3527 c-46 -26 -51 -36 -33 -61 13 -17 15 -17 52 3 62 33 135 23 135 -18 0 -26 -19 -39 -81 -57 -110 -32 -141 -104 -75 -170 29 -29 41 -34 80 -34 52 0 104 18 125 44 12 14 11 19 -4 35 -17 19 -17 19 -48 0 -39 -23 -100 -25 -118 -3 -21 25 1 47 69 69 96 32 133 78 112 141 -24 71 -134 97 -214 51z"/>
 <path d="M3892 3538 c-8 -8 -12 -56 -12 -150 l0 -138 -45 0 c-49 0 -67 -18 -45 -45 11 -13 36 -15 134 -13 l121 3 0 25 c0 23 -4 25 -53 28 l-53 3 2 139 c0 76 -2 143 -6 149 -8 14 -28 14 -43 -1z"/>
 <path d="M4242 3538 c-19 -19 -17 -322 3 -338 10 -8 41 -11 95 -8 75 3 82 5 112 36 28 27 33 40 33 78 0 41 -4 50 -36 78 l-37 31 40 58 c41 61 42 77 3 77 -19 0 -34 -15 -70 -70 -36 -55 -51 -70 -70 -70 -23 0 -24 4 -27 67 -3 70 -18 89 -46 61z m162 -191 c11 -8 19 -26 19 -42 0 -38 -27 -55 -85 -55 l-48 0 0 55 0 55 48 0 c27 0 56 -6 66 -13z"/>
 <path d="M4687 3543 c-4 -3 -7 -79 -7 -168 0 -132 3 -165 15 -175 8 -7 22 -10 30 -6 13 4 15 32 15 169 0 113 -4 167 -12 175 -13 13 -31 16 -41 5z"/>
 <path d="M5035 3533 c-46 -24 -66 -45 -86 -88 -36 -79 -13 -166 57 -220 34 -26 47 -30 106 -30 63 0 69 2 102 34 27 26 33 38 25 48 -16 18 -37 16 -66 -7 -48 -38 -137 -17 -162 37 -14 32 -14 96 1 128 25 54 113 73 162 34 23 -18 31 -20 53 -10 l26 12 -24 25 c-51 55 -132 70 -194 37z"/>
 <path d="M5517 3543 c-4 -3 -7 -71 -7 -150 l0 -143 -50 0 c-55 0 -73 -17 -50 -45 11 -13 36 -15 134 -13 l121 3 0 25 c0 23 -4 25 -47 28 l-48 3 0 138 c0 93 -4 141 -12 149 -13 13 -31 16 -41 5z"/>
 <path d="M2024 3438 c-55 -57 -204 -210 -332 -342 l-232 -238 -321 313 c-254 248 -322 310 -332 300 -10 -10 54 -78 308 -327 l320 -313 -125 -128 c-69 -70 -210 -214 -314 -319 -116 -119 -186 -196 -181 -203 4 -7 12 -11 19 -9 6 2 149 144 316 316 168 171 307 312 310 312 3 0 158 -149 344 -330 187 -182 344 -329 350 -327 6 2 11 8 11 14 0 6 -151 157 -335 337 -184 180 -335 331 -335 336 0 9 61 73 422 445 128 131 232 244 230 249 -8 25 -30 10 -123 -86z"/>
 <path d="M706 3002 c-2 -4 -1 -14 5 -22 15 -25 10 -34 -9 -17 -18 16 -32 14 -32 -5 0 -4 19 -22 42 -39 30 -21 51 -48 70 -90 l27 -60 -42 -30 c-23 -17 -54 -37 -69 -45 -16 -8 -28 -19 -28 -24 0 -24 25 -17 86 26 l68 46 33 -67 c39 -77 48 -76 83 10 12 30 24 55 25 55 2 0 34 -20 71 -44 62 -42 84 -48 84 -26 0 4 -31 29 -69 54 l-69 45 24 47 c13 26 24 53 24 60 0 7 20 25 45 40 25 14 45 30 45 34 0 17 -21 22 -37 8 -15 -12 -15 -11 -4 10 6 12 9 27 6 32 -7 12 -372 14 -379 2z m323 -59 c-6 -17 -35 -45 -71 -70 l-61 -42 -63 42 c-38 26 -67 53 -73 70 l-10 27 144 0 144 0 -10 -27z m-55 -115 c-9 -18 -17 -34 -18 -35 -1 -1 -8 2 -16 7 -12 8 -10 14 15 35 38 31 39 31 19 -7z m-119 -18 c0 -27 -21 -19 -32 11 -12 30 -12 30 10 16 12 -8 22 -20 22 -27z m69 -35 c19 -14 19 -16 -5 -60 l-24 -45 -22 43 -22 42 21 18 c24 20 27 21 52 2z"/>
 <path d="M1814 2995 c-10 -26 6 -83 33 -115 44 -53 68 -60 218 -60 l137 0 -7 -32 c-14 -72 -2 -67 -161 -70 -197 -4 -191 -22 10 -26 115 -2 156 1 163 10 13 17 65 287 57 299 -3 5 -103 9 -225 9 -186 0 -221 -2 -225 -15z m413 -47 c-3 -13 -9 -40 -12 -60 l-7 -38 -122 0 c-66 0 -138 5 -158 10 -42 12 -78 52 -78 86 l0 24 191 0 191 0 -5 -22z"/>
 <path d="M2684 2991 c-17 -10 -40 -32 -52 -48 -22 -32 -44 -104 -38 -124 2 -8 7 -26 10 -41 8 -37 51 -85 97 -108 56 -29 106 -26 162 10 50 32 55 41 32 60 -12 10 -23 8 -58 -9 -54 -26 -83 -26 -124 -1 -62 38 -69 141 -12 196 24 23 39 29 73 29 52 0 76 -18 76 -56 0 -27 -2 -28 -52 -31 -45 -3 -53 -6 -53 -23 0 -18 7 -20 80 -20 l80 0 0 70 c0 68 -1 70 -34 92 -45 30 -141 32 -187 4z"/>
 <path d="M3084 2997 c-3 -9 23 -86 58 -173 57 -141 66 -158 91 -165 22 -6 30 -3 42 15 22 34 134 319 129 328 -8 13 -51 9 -62 -5 -6 -6 -13 -24 -17 -40 -7 -26 -9 -27 -81 -27 l-74 0 -17 38 c-19 39 -58 56 -69 29z m206 -129 c-1 -7 -11 -38 -24 -68 l-24 -55 -26 59 c-14 32 -26 62 -26 67 0 5 23 9 50 9 34 0 50 -4 50 -12z"/>
 <path d="M3587 3004 c-7 -8 -10 -338 -3 -345 2 -2 48 -2 101 1 91 5 99 8 121 33 18 21 24 40 24 77 0 44 -4 52 -34 76 l-34 28 38 60 c40 63 40 80 -1 74 -15 -2 -38 -24 -67 -65 -33 -47 -49 -63 -67 -63 -22 0 -24 4 -27 63 -3 54 -6 62 -23 65 -12 2 -24 0 -28 -4z m164 -194 c22 -12 26 -59 7 -78 -7 -7 -36 -12 -65 -12 l-53 0 0 50 0 50 46 0 c25 0 54 -5 65 -10z"/>
 <path d="M4035 2998 c-3 -8 -4 -85 -3 -173 l3 -159 28 -7 c34 -9 47 9 98 136 19 47 36 85 39 85 3 0 23 -45 44 -100 43 -110 59 -130 96 -120 l25 6 0 169 0 170 -25 0 c-25 0 -25 -1 -30 -110 l-5 -110 -38 96 c-47 120 -59 138 -81 120 -8 -7 -18 -23 -22 -34 -3 -12 -20 -56 -38 -97 l-31 -75 -5 105 c-5 100 -6 105 -28 108 -12 2 -24 -3 -27 -10z"/>
 <path d="M4575 2997 c-3 -7 -4 -85 -3 -172 l3 -160 108 -5 c114 -5 132 0 125 37 -3 15 -16 18 -86 21 l-82 3 0 39 0 40 80 0 c63 0 82 3 86 15 12 32 -15 45 -92 45 l-74 0 0 45 0 44 83 3 c80 3 82 4 82 28 l0 25 -113 3 c-86 2 -114 0 -117 -11z"/>
 <path d="M5007 3004 c-4 -4 -7 -81 -7 -170 0 -164 2 -175 38 -180 14 -3 43 32 137 160 l64 89 3 -123 c3 -107 5 -123 20 -126 34 -5 39 20 36 187 l-3 164 -26 3 c-23 3 -37 -11 -115 -119 l-89 -121 -5 118 c-5 110 -7 119 -25 122 -12 2 -24 0 -28 -4z"/>
 <path d="M5587 3004 c-4 -4 -7 -70 -7 -146 l0 -138 -44 0 c-51 0 -78 -22 -55 -45 10 -10 46 -14 131 -16 119 -1 138 2 134 24 -4 28 -19 37 -61 37 l-44 0 -3 143 c-3 134 -4 142 -23 145 -12 2 -24 0 -28 -4z"/>
 <path d="M2697 2464 c-4 -4 -7 -70 -7 -146 l0 -138 -44 0 c-51 0 -76 -20 -56 -45 11 -13 36 -15 139 -13 l126 3 0 25 c0 23 -4 25 -52 28 l-52 3 -3 142 c-3 134 -4 142 -23 145 -12 2 -24 0 -28 -4z"/>
 <path d="M3045 2458 c-3 -8 -4 -86 -3 -173 l3 -160 25 0 c24 0 25 3 28 68 l3 67 84 0 84 0 3 -67 c3 -65 4 -68 28 -68 l25 0 0 170 0 170 -25 0 c-24 0 -25 -3 -28 -72 l-3 -73 -84 0 -84 0 -3 73 c-3 66 -5 72 -26 75 -12 2 -24 -3 -27 -10z"/>
 <path d="M3535 2457 c-3 -7 -4 -85 -3 -172 l3 -160 115 0 115 0 0 25 c0 24 -2 25 -82 28 l-83 3 0 39 0 40 74 0 c81 0 111 15 86 45 -9 11 -33 15 -86 15 l-74 0 0 45 0 44 83 3 c80 3 82 4 82 28 l0 25 -113 3 c-86 2 -114 0 -117 -11z"/>
 <path d="M1305 2427 c-3 -7 -4 -89 -3 -182 l3 -170 175 0 175 0 0 180 0 180 -173 3 c-135 2 -174 0 -177 -11z m315 -171 l0 -145 -145 -3 -145 -3 0 148 0 147 145 0 145 0 0 -144z"/>
 <path d="M1415 2260 c-13 -21 12 -31 71 -28 44 2 59 7 59 18 0 19 -119 28 -130 10z"/>
 </g>

</svg>